<svg style="display: none;" xmlns="http://www.w3.org/2000/svg">
  <symbol id="super-homem">
    <g clipPath="url(#super-homem_svg__a)">
      <g opacity="0.4">
        <path
          opacity="0.75"
          d="M88.489 81.483c-.088-.126-3.499-6.576-3.569-6.684a.74.74 0 0 0-.974-.2c-.105.062-.225.13-.362.206-.006.005-.009.011-.015.017-.294.338-1.534.852-3.297 1.444a49.88 49.88 0 0 1-2.32.793 71.614 71.614 0 0 1-4.56 1.245c-3.098.842-5.923 1.447-6.79 1.385-2.039.326-3.64.464-4.215.294a2.815 2.815 0 0 1-.397-.162c-.563-.14-.78-.349-.858-.46-2.886-1.665-8.96-5.948-8.96-5.948s-.178-.22 2.763-3.634l.011-.015c.252-.334.552-.728.908-1.197.82-1.069 1.602-1.656 2.293-1.908.508-.294.91-.368 1.316-.353a.316.316 0 0 1 .131-.044c.36-.056 1.608.23 2.974.579 1.5.355 3.253.745 4.105.287.376-.458.63-1.283 1.12-2.498.251-.622.63-1.071 1.036-1.388.228-.215.482-.37.762-.453.636-.276 10.477-2.818 10.468-2.747.721-.141 1.26-.394 1.938-1.527.96-1.608 1.088-5.815 1.088-5.815s1.208 4.374 15 .264c6.868-2.046 14.215-7.606 19.861-12.672l-3.393.237h-.085c-.315.082-.668 0-.939-.302a2.522 2.522 0 0 1-.138-.164l-6.439.604s-3.857 2.255-4.864 2.818a52.63 52.63 0 0 0-1.663.97c-2.737 1.687-4.16 2.691-5.266 4.608-.526.913-.847 3.534-.928 4.007-.059.334-.508.628-1.033-.508-.47-1.01-.28-1.923-.388-1.946-.409-.085-.978.422-1.132.593-.356.39-.493.56-.695.913a8.66 8.66 0 0 0-.373.734l-.356.783c-.073.18-.242.314-.435.311-.28 0-.855-.302-.166-2.113a8.28 8.28 0 0 1 .61-1.254l.332-.563c.073-.085-.008-.203-.117-.18-.913.206-2.01 1.087-2.795 1.791-.887.799-1.476.408-.825-.822 0 0 .288-.716 2.025-2.427.265-.261.449-.446.56-.59.128-.168.184-.282-.032-.203-.625.23-1.795 1.016-2.15 1.122-.284.085-.55 0-.637-.2-.186-.411.727-2.096 4.698-4.271.163-.088 2.71-2.002 4.656-3.608a49.248 49.248 0 0 1 9.757-6.276.513.513 0 0 1 .132-.053l1.911-.493 3.244-.614c-.087-.472-.14-.974-.052-1.38a.52.52 0 0 1 .198-.313c-.023-.033-.038-.05-.038-.05l.175-.018.029-.009a1.891 1.891 0 0 0-.075-.09l.271-.027 17.827-1.817a6.335 6.335 0 0 1-2.737-1.97c-.554.39-2.769-3.326-2.818-6.02-.059-3.042 2.2-6.274 3.91-6.817 2.62-.831 4.484 0 5.993.693 1.257.578 3.822-.916 4.878 1.28 1.053 2.195.376 3.918.677 4.623.3.704 1.281 1.488 1.281 1.488s-1.786.975-2.714-.1a6.38 6.38 0 0 1-2.949 6.259l1.934-.197c1.47-.22 2.97.08 4.245.843l8.823 4.368c.304.12.686.358.721.766.064.138.082.264.018.367l3.629 1.477a.645.645 0 0 0 .715-.12l5.62-4.953c2.007-1.89 3.352-2.98 4.382-4.588 0 0-.23-2.096.009-3.041l-2.133-1.02a.283.283 0 0 1-.134-.375l2.521-5.351.131-.28 2.521-5.35a.279.279 0 0 1 .373-.136l2.632 1.257a.148.148 0 0 1 .07.196l-.058.124a1.163 1.163 0 0 0 .604 1.406 1.15 1.15 0 0 0 1.467-.423l.056-.117a.146.146 0 0 1 .195-.07l2.378 1.132c.266.127.38.447.254.714l-1.109 2.354 1.421-.925a.278.278 0 0 1 .388.085l1.582 2.463a.148.148 0 0 1-.044.203l-.114.073a1.167 1.167 0 0 0-.222 1.515c.321.499.954.67 1.468.417l.108-.07a.145.145 0 0 1 .201.043l.482.749-2.011.34c.161.247-.939 1.157-1.184 1.319l-.773 3.645-.216.141-4.756 3.089a.53.53 0 0 1-.735-.159l-.424-.66c-.102.064-.204.12-.309.17-.131.061-3.142 3.176-4.242 4.509-.353.428-1.412 1.661-1.795 2.064-1.578 1.664-5.281 5.615-6.15 6.487a5.758 5.758 0 0 1-1.307.98.638.638 0 0 1-.537.036l-6.34-2.443c.029.109.058.218.09.32.152.517-.35.987-.849.793l-6.731-2.621s-.023-.006-.032-.01a.642.642 0 0 0-.835.506c-.286 1.667-.925 5.777-1.54 9.778l-1.666 9.438a75.373 75.373 0 0 1-.417 2.603L88.497 81.477l-.008.006Zm43.745-17.097-.283 1.474c-.513 1.11-1.109 6.852-1.109 6.852s-1.418 3.367-2.357 3.918c-.721.423-6.425 1.868-7.385 2.413-4.788 2.728 4.808 5.15 5.409 6.309.243.47.272 1.142.225 1.729-.009.106-.102.264-.213.252 0 0-.076-.026-.222-.067l.187.232s-1.275 1.333-2.702 2.04l3.855 6.264c.347.567.437 1.31.253 2.088l-5.707 24.021.053.006-1.94 7.999h.572c.411-.006.653.347.539.784l-1.908 7.456c-.146.567.003 1.089.391 1.368l9.532 6.869c.566.409-.008 1.506-.779 1.495l-4.741-.08c-4.584.115-19.683-.27-19.683-.27a.563.563 0 0 1-.277-.07c-.336-.065-.517-.391-.412-.784l4.252-15.899a1.15 1.15 0 0 1 .466-.634l7.268-28.56c.097-.375.065-.739-.09-1.024l-4.593-8.422-.037.006c-.298.593-.596 1.183-.893 1.776-.164.325-.353.68-.663.871-.329.203-5.552-4.846-5.686-4.873L86.14 112.558l-4.47-2.63c-3.239.749-6.635-9.96-9.095-9.772a9.274 9.274 0 0 1-1.199.194c-3.422.287-6.013-.344-7.916-1.242-1.362-.581-3.906-4.048-4.817-5.046l1.45-.558c.315-1.788 3.382-11.431 3.656-11.792.047-.074.076-.115.076-.115l.012.006.046-.05s.257.153 1.366.49a25.9 25.9 0 0 0 2.871.579c2.737.396 8.826 5.252 8.826 5.252L132.234 64.4v-.015Z"
          fill="#1D1D1B"
        ></path>
      </g>
      <path
        d="M92.845 25.699S72.678 49.136 54.99 54.409c-17.687 5.272-26.986 2.26-26.986 2.26s-.16 5.392-1.394 7.456c-1.235 2.064-2.107 1.847-3.805 2.187-1.698.34-2.591 2.827-3.317 4.94-.727 2.114-6.148.015-8.301-.205-2.154-.22-2.836-1.063-7.344 4.271C.07 79.698.298 79.98.298 79.98s11.113 7.835 13.1 8.425c1.99.59 13.489-1.712 19.966-3.752 4.316-1.359 6.623-2.524 7.686-3.153a.953.953 0 0 1 1.28.3c.814 1.227 2.314 3.578 2.74 4.826.592 1.735.213 1.697.213 1.697s-4.146.478-7.172.038c-3.025-.44-4.75-1.13-4.75-1.13s-2.655 3.464 2.215 8.469c4.87 5.008 12.269 6.537 25.378 3.502 13.11-3.036 22.948-5.378 24.063-5.005 1.114.373-3.117-12.324 1.57-35.776 4.665-23.349 6.255-32.72 6.255-32.72l.003-.002Z"
        fill="#4A8AC9"
      ></path>
      <path
        d="M25.428 76.707s-4.271 1.653-5.64 2.149c-1.368.496-6.407.44-8.105-.66-1.698-1.102-2.192-2.041-4.435-1.818-2.244.223-5.369 1.433-5.369 1.433L.298 79.98l11.44 7.53s.382 1.32 5.313.716c1.313-.22 1.48-.056 3.834-4.022 2.355-3.966 3.396-5.894 3.834-6.558.438-.66.712-.936.712-.936l-.003-.003ZM81.62 38.906S74.39 49.817 56.648 57.64c-17.746 7.823-27.056 6.833-27.056 6.833s.33 0 3.285 3.858a6465.54 6465.54 0 0 0 7.449 9.699c.767.992 1.424 2.533 1.535 2.976.11.44 2.629 3.746 3.177 5.07.549 1.321.438 2.313.438 2.313s-5.588.66-8.543-.111c-2.959-.772-3.505-1.101-3.505-1.101s-1.861 1.873-.11 5.07c1.753 3.196 2.41 3.305 2.41 3.305s10.734 0 23.767-7.823c.111-.22-6.352 1.764-9.31 1.32-2.959-.44-2.848-1.212-2.848-1.212s10.405-5.07 18.183-14.545c7.776-9.48 16.103-34.384 16.103-34.384l-.003-.003ZM28.168 69.984s-3.23 2.205-5.313 1.93c-2.623-.347-.931-5.347.822-5.675 1.754-.332-2.08-.66-3.34 2.48-1.26 3.141-1.313 4.242-3.834 3.582-2.518-.66-5.97-1.597-6.682-1.489-.712.109.657.552 1.313 1.653.657 1.1 1.754 3.473 5.859 3.857 4.108.385 8.598.056 8.598.056s1.535-2.093 1.917-3.693c.383-1.597.657-2.7.657-2.7h.003Z"
        fill="#fff"
        opacity="0.2"
      ></path>
      <path
        d="M78.19 42.745s-8.576 11.358-31.057 18.46c-13.34 4.041-17.413 3.228-17.413 3.228s.248-.607-.417-2.865c-.668-2.257-1.296-4.9-1.296-4.9s1.905 5.22 5.34 5.443c3.434.223 22.872-4.611 33.402-11.263 8.394-5.299 11.446-8.102 11.446-8.102h-.006ZM87.126 40.441s-10.57 29.831-26.42 40.96c-5.978 4.667-12.66 6.173-12.66 6.173s12.724-6.81 20.83-18.605c8.105-11.792 15.4-23.153 16.213-24.873.815-1.72 2.034-3.655 2.034-3.655h.003Z"
        fill="#4176B3"
      ></path>
      <path
        d="M81.991 57.045s-8.774 23.446-23.26 31.237C44.244 96.072 35.576 95.7 35.576 95.7s5.287 5.95 15.096 5.152c9.81-.799 22.592-19.583 25.991-27.865 3.4-8.28 5.325-15.942 5.325-15.942h.003ZM41.8 81.007s-.225-1.567-2.402-4.11c-2.177-2.542-5.33-6.792-7.125-9.293-1.794-2.501-3.26-5.745-3.904.63-.645 6.374-3.344 8.995-4.257 10.448-.916 1.453-2.48 4.254-2.48 4.254s-2.238 4.406-3.037 4.711c-.8.306 4.499-.181 10.293-1.778 5.795-1.597 10.956-3.259 11.68-4.087.724-.828 1.231-.775 1.231-.775Z"
        fill="#4176B3"
      ></path>
      <path
        d="M25.154 76.584s-6.066.451-9.322-.268c-3.257-.719-3.735-2.313-4.607-3.822-.873-1.506-2.626-2.77-6.034 1.442-2.833 3.502-2.693 3.845-2.693 3.845s6.124-2.334 7.857-.484c1.733 1.852 6.778 1.993 9.17 1.556 1.789-.33 5.629-2.272 5.629-2.272v.002Z"
        fill="#4176B3"
      ></path>
      <path
        d="M49.272 101.045c3.387 0 7.273-.525 11.75-1.561l3.25-.755c10.576-2.454 19.715-4.573 20.654-4.26a.39.39 0 0 0 .38-.064c.288-.235.242-.751 0-2.894-.543-4.826-1.813-16.122 1.566-33.04 4.616-23.088 6.241-32.634 6.256-32.728l.175-1.036-.683.795c-.201.235-20.316 23.435-37.717 28.622-13.903 4.145-23.62 3.29-26.814 2.26l-.368-.12-.011.39c0 .053-.173 5.34-1.354 7.315-.963 1.615-1.631 1.72-2.84 1.914-.238.039-.495.08-.772.136-1.906.381-2.848 3.129-3.537 5.134-.449 1.309-3.5.584-5.727.055-.902-.214-1.68-.399-2.267-.457-.234-.024-.45-.056-.657-.086-1.908-.278-3.002-.202-6.941 4.46-3.93 4.564-3.708 4.837-3.548 5.037l.058.056c.456.32 11.175 7.87 13.189 8.466 2.045.607 13.567-1.682 20.135-3.752 4.411-1.388 6.745-2.589 7.746-3.179a.662.662 0 0 1 .89.208c.835 1.26 2.296 3.552 2.708 4.759.277.816.318 1.177.315 1.324-.741.076-4.312.408-6.959.023-2.953-.428-4.668-1.106-4.683-1.112l-.204-.082-.134.176c-.03.035-2.752 3.725 2.238 8.853 3.358 3.453 7.822 5.143 13.903 5.143h.003Zm35.397-7.18c-1.928 0-8.677 1.544-20.529 4.292l-3.25.754c-12.29 2.848-20.033 1.794-25.104-3.42-4.068-4.18-2.752-7.162-2.308-7.908.56.2 2.15.71 4.592 1.066 2.985.431 6.956-.003 7.236-.036a.384.384 0 0 0 .272-.146c.148-.188.239-.567-.23-1.938-.433-1.268-1.924-3.61-2.773-4.893a1.245 1.245 0 0 0-1.672-.388c-.977.578-3.267 1.753-7.623 3.123-6.355 2.003-17.877 4.322-19.797 3.75C11.697 87.59 2.08 80.868.645 79.86c.175-.332.846-1.368 3.42-4.354 3.906-4.623 4.796-4.494 6.415-4.26.213.033.438.065.68.089.546.056 1.345.246 2.191.446 2.58.613 5.792 1.374 6.414-.437.642-1.87 1.523-4.433 3.098-4.75.269-.053.52-.094.75-.132 1.246-.2 2.145-.344 3.247-2.193 1.08-1.808 1.36-5.956 1.422-7.227 1.899.478 11.14 2.307 26.79-2.358C70.813 49.99 88.69 30.77 92.378 26.66c-.531 3.003-2.305 12.822-6.078 31.695-3.399 17.005-2.12 28.369-1.575 33.221.117 1.034.219 1.944.192 2.299a2.12 2.12 0 0 0-.25-.012l.002.003Z"
        fill="#1D1D1B"
      ></path>
      <path
        d="m62.498 107.882 10.296-5.143a3.324 3.324 0 0 0 1.564-1.655l9.497-22.002 10.76 4.456-11.42 25.204a3.305 3.305 0 0 1-1.662 1.659l-15.377 6.901-3.658-9.42Z"
        fill="#fff"
      ></path>
      <path
        d="m65.996 117.696 15.656-7.028a3.612 3.612 0 0 0 1.81-1.805l11.545-25.484L83.7 78.697l-9.611 22.266a3.02 3.02 0 0 1-1.427 1.509l-10.536 5.263 3.866 9.958.003.003Zm28.229-34.003L82.93 108.622a3.01 3.01 0 0 1-1.517 1.512l-15.099 6.775-3.449-8.883L72.923 103a3.613 3.613 0 0 0 1.7-1.802l9.384-21.738 10.215 4.23.003.003Z"
        fill="#1D1D1B"
      ></path>
      <path
        d="M71.989 103.156s4.484 9.587 4.546 9.423c.061-.164-8.996 4.462-8.996 4.462l-4.201-9.479 8.654-4.409-.003.003Z"
        fill="#A4A3A3"
      ></path>
      <path d="m71.925 103.37.612 1.465-7.77 5.263-1.43-2.533 8.588-4.195Z" fill="#fff"
        opacity="0.2"></path>
      <path
        d="m65.996 117.696 15.656-7.028a3.612 3.612 0 0 0 1.81-1.805l11.545-25.484L83.7 78.697l-9.611 22.266a3.02 3.02 0 0 1-1.427 1.509l-10.536 5.263 3.866 9.958.003.003Zm28.229-34.003L82.93 108.622a3.01 3.01 0 0 1-1.517 1.512l-15.099 6.775-3.449-8.883L72.923 103a3.613 3.613 0 0 0 1.7-1.802l9.384-21.738 10.215 4.23.003.003Z"
        fill="#1D1D1B"
      ></path>
      <path
        d="M81.959 77.417c-1.66 3.496-2.597 8.005-4.26 11.499-.18.378-.128.836.143 1.156 2.853 3.397 8.847 4.553 12 5.096.365.062.77.112 1.074-.102.286-.2.388-.57.473-.91l.662-2.672c.056-.223.111-.46.035-.678l-1.546-2.178-7.242-8.34-1.342-2.87h.003Z"
        fill="#E73C1E"
      ></path>
      <path
        d="M81.959 77.417c-1.66 3.496-2.597 8.005-4.26 11.499-.18.378-.128.836.143 1.156 2.853 3.397 8.847 4.553 12 5.096.365.062.77.112 1.074-.102.286-.2.388-.57.473-.91l.662-2.672c.056-.223.111-.46.035-.678l-1.546-2.178-7.242-8.34-1.342-2.87h.003Z"
        fill="#E4650E"
      ></path>
      <path
        d="M82.21 77.564c-1.106 2.337-1.81 4.844-2.63 7.289-.405 1.212-.834 2.416-1.347 3.587-.114.258-.298.537-.342.82-.04.266.062.495.231.692.32.373.68.713 1.06 1.024 1.578 1.298 3.527 2.105 5.458 2.704 1.728.534 3.498.904 5.278 1.204.251.044.566.097.8-.041.233-.138.3-.426.362-.664.183-.699.35-1.406.522-2.108l.131-.528c.041-.162.096-.329.096-.496 0-.109.006-.094-.06-.185l-.491-.69-.63-.89c-.117-.16-.26-.325-.356-.498-.012-.024.073.082.023.029a44.21 44.21 0 0 1-.061-.07l-.257-.297-2.255-2.595-2.868-3.305-1.728-1.99c-.175-.203-.262-.473-.376-.714l-.884-1.89-.181-.388c-.158-.34.344-.637.505-.296l.648 1.385.455.975.16.346c.009.018.085.144.076.161.003-.005-.073-.085-.023-.032.023.027.046.053.067.08l.277.316.986 1.137 2.868 3.302 2.495 2.874c.172.2.35.393.516.596.272.326.502.698.747 1.045l.625.878c.148.211.283.358.306.628.03.352-.108.722-.19 1.063l-.271 1.089c-.093.375-.184.751-.28 1.124-.07.279-.149.566-.321.801-.406.558-1.065.505-1.669.403a74.973 74.973 0 0 1-1.164-.212c-.94-.179-1.876-.382-2.801-.628-2.037-.537-4.08-1.262-5.859-2.413a11.698 11.698 0 0 1-1.249-.93c-.394-.338-.8-.702-1.082-1.128a1.355 1.355 0 0 1-.21-.892c.035-.317.192-.59.324-.875.26-.578.496-1.169.717-1.764.937-2.51 1.631-5.108 2.612-7.603.23-.585.475-1.163.744-1.732.16-.34.665-.044.505.296l-.01.006Z"
        fill="#1D1D1B"
      ></path>
      <path
        d="M107.821 87.466s-1.021 1.4-2.395 2.134c-1.754.936-2.299.675-2.299.675s-11.184 2.184-14.47 2.466c-11.116.954 12.238-10.5 12.991-10.744l6.173 5.469Z"
        fill="#E4650E"
      ></path>
      <path
        d="M87.473 93.093c.353 0 .756-.02 1.208-.059 3.166-.273 13.398-2.254 14.431-2.457.266.059.972.074 2.451-.716 1.418-.757 2.451-2.16 2.495-2.22l.157-.217-6.5-5.756-.158.053c-.335.108-4.412 2.075-8.44 4.35-8.06 4.544-7.82 5.733-7.73 6.18.114.572.77.845 2.09.845l-.004-.003Zm15.671-3.132-.076.026c-.11.02-11.204 2.184-14.436 2.46-2.495.214-2.664-.264-2.676-.317-.04-.203.123-1.42 7.431-5.545 3.636-2.052 7.379-3.884 8.199-4.248l5.833 5.164c-.336.408-1.144 1.312-2.133 1.84-1.526.816-2.051.66-2.057.66l-.088-.04h.003Z"
        fill="#1D1D1B"
      ></path>
      <path
        d="m113.348 123.341-13.051-1.207.28 9.79s13.071 2.258 13.062 2.011c-.008-.249-.291-10.591-.291-10.591v-.003Z"
        fill="#4176B3"
      ></path>
      <path
        d="m89.314 89.327 10.154 11.759c.257.297.4.676.406 1.066l.469 31.299 13.285.235-1.164-35.388a3.344 3.344 0 0 0-.902-2.176l-14.863-15.84-7.385 9.045Z"
        fill="#fff"
      ></path>
      <path
        d="m113.931 133.985-1.176-35.696a3.624 3.624 0 0 0-.98-2.366l-15.09-16.084-7.753 9.493.16.188 10.154 11.76c.21.244.33.555.333.878l.473 31.583 13.873.247.006-.003Zm-17.214-53.26 14.635 15.6c.505.537.796 1.242.823 1.981l1.155 35.08-12.695-.226-.464-31.014a1.953 1.953 0 0 0-.475-1.253l-9.994-11.572 7.02-8.596h-.005Z"
        fill="#1D1D1B"
      ></path>
      <path
        d="m113.348 123.341-13.051-.018.28 8.601s13.071 2.258 13.062 2.011c-.008-.25-.291-10.591-.291-10.591v-.003Z"
        fill="#A4A3A3"
      ></path>
      <path
        d="m113.931 133.985-1.176-35.696a3.624 3.624 0 0 0-.98-2.366l-15.09-16.084-7.753 9.493.16.188 10.154 11.76c.21.244.33.555.333.878l.473 31.583 13.873.247.006-.003Zm-17.214-53.26 14.635 15.6c.505.537.796 1.242.823 1.981l1.155 35.08-12.695-.226-.464-31.014a1.953 1.953 0 0 0-.475-1.253l-9.994-11.572 7.02-8.596h-.005Z"
        fill="#1D1D1B"
      ></path>
      <path d="M100.297 123.038h13.051v.587h-13.051v-.587Z" fill="#1D1D1B"></path>
      <path
        d="m102.563 123.314.304 8.942-.583.02-.304-8.942.583-.02ZM105.03 123.068l.302 9.727-.583.018-.302-9.727.583-.018ZM107.491 123.325l.251 9.226-.583.016-.251-9.226.583-.016ZM109.805 133.533l.584-.311-.3-10.201-.584.308.3 10.204ZM112.441 123.321l.298 10.203-.583.017-.298-10.203.583-.017Z"
        fill="#1D1D1B"
      ></path>
      <path
        d="M101.98 21.774c-4.49 0-8.129-3.662-8.129-8.178 0-4.517 3.64-8.179 8.129-8.179 4.49 0 8.129 3.662 8.129 8.179s-3.639 8.178-8.129 8.178Z"
        fill="#fff"
      ></path>
      <path
        d="M101.98 22.068c4.642 0 8.421-3.802 8.421-8.472s-3.779-8.472-8.421-8.472c-4.642 0-8.42 3.801-8.42 8.472 0 4.67 3.778 8.472 8.42 8.472Zm0-16.354c4.321 0 7.837 3.537 7.837 7.885 0 4.347-3.516 7.884-7.837 7.884-4.32 0-7.837-3.537-7.837-7.884 0-4.348 3.516-7.885 7.837-7.885Z"
        fill="#1D1D1B"
      ></path>
      <path
        d="M101.98 22.068c4.642 0 8.421-3.802 8.421-8.472s-3.779-8.472-8.421-8.472c-4.642 0-8.42 3.801-8.42 8.472 0 4.67 3.778 8.472 8.42 8.472Zm0-16.354c4.321 0 7.837 3.537 7.837 7.885 0 4.347-3.516 7.884-7.837 7.884-4.32 0-7.837-3.537-7.837-7.884 0-4.348 3.516-7.885 7.837-7.885Z"
        fill="#1D1D1B"
      ></path>
      <path
        d="m81.402 62.214 10.092 2.448a.356.356 0 0 1 .157.01l11.96 1.587c.114.038 1.439.61 1.424.716-1.024 7.107-2.999 13.54-3.37 14.584-.038.109.015.226.126.282l.989.502c2.666 1.218 3.422 1.673 4.432 2.886.408.49.639 1.189.764 1.802.023.109-.035.276-.16.264 0 0-5.597-1.64-12.64.115-6.469 1.611-8.36 4.339-8.36 4.339-.265.37-.562.813-1.184.657-.248-.062-.423-.232-.583-.408 0 0-5.217-6.705-7.128-9.573-1.617-2.427-1.728-4.764-1.442-6.599.126-.804.353-1.585.642-2.345l4.284-11.264-.003-.003Z"
        fill="#E4650E"
      ></path>
      <path
        d="M88.106 90.234s-6.955-7.73-7.942-11.825c-.916-3.804 3.356-14.401 3.356-14.401l-3.116 1.17S75.922 76.276 76.439 78.6c1.155 5.21 9.4 13.947 9.4 13.947l2.267-2.313Z"
        fill="#fff"
        opacity="0.2"
      ></path>
      <path
        d="M79.094 84.606c-.858-1.183-1.768-2.366-2.334-3.725a9.152 9.152 0 0 1-.698-3.746c.032-1.282.324-2.539.776-3.737.082-.214.164-.428.245-.645l1.38-3.629 1.69-4.444c.318-.834.627-1.673.951-2.504.006-.012.009-.027.014-.038.059-.153.193-.247.36-.206l1.622.394 3.545.86 3.495.848 1.085.264c.091.024.184.047.275.068.02.003.038.011.058.014.02.003-.02-.014-.02-.014.014 0 .172.026.105.014h.003c.528.086 1.065.141 1.596.212l3.445.458 3.805.505 2.67.355c.146.02.295.038.44.059.219.029.435.158.637.246.277.123.566.247.825.411.117.073.231.162.251.308.018.13-.026.276-.046.406l-.079.525a93.03 93.03 0 0 1-.312 1.867 92.113 92.113 0 0 1-.704 3.528 98.37 98.37 0 0 1-1.426 5.719 73.52 73.52 0 0 1-.534 1.811l-.184.581c-.024.068-.038.141-.07.206-.006.009-.006.026-.012.035-.041.047.056 0-.02-.018.011 0 .035.015.049.018.111.03.234.118.336.17l.414.212c.344.173.698.328 1.045.493.764.36 1.537.728 2.232 1.215a6.97 6.97 0 0 1 1.424 1.342c.344.428.566.94.714 1.468.065.225.167.501.097.736s-.275.379-.508.33c-.187-.04-.373-.098-.56-.139a20.489 20.489 0 0 0-1.523-.279 26.628 26.628 0 0 0-5.275-.229 27.109 27.109 0 0 0-7.023 1.306c-1.582.517-3.131 1.187-4.517 2.12-.432.29-.753.531-1.132.875-.201.185-.4.376-.575.587-.02.026-.04.053-.064.08-.038.043.053-.077.009-.01-.14.203-.29.414-.479.57-.39.32-.936.37-1.371.094-.219-.141-.377-.329-.531-.529-.558-.719-1.112-1.438-1.666-2.16-.097-.126-.02-.329.105-.402.152-.088.303-.02.4.105.405.532.814 1.06 1.222 1.589.166.214.324.437.499.642.175.206.411.397.703.35.213-.035.368-.218.493-.382.076-.097.143-.2.222-.296.624-.781 1.491-1.392 2.334-1.909 2.092-1.285 4.485-2.087 6.869-2.606a28 28 0 0 1 8.128-.558c.881.07 1.763.179 2.632.34.403.074.814.153 1.208.268.093.026.018-.018-.029 0l-.129.076c.073-.059.003-.003.006 0-.008-.012-.006-.03-.011-.044-.035-.065-.041-.176-.059-.25a5.784 5.784 0 0 0-.166-.534 2.921 2.921 0 0 0-.496-.869 7.202 7.202 0 0 0-.893-.904c-.826-.69-1.885-1.16-2.865-1.615-.411-.19-.814-.387-1.217-.59-.111-.055-.227-.105-.335-.17-.254-.15-.324-.41-.237-.68.193-.588.377-1.18.552-1.774a99.356 99.356 0 0 0 1.87-7.515c.341-1.638.639-3.288.884-4.943.009-.053.006-.126.026-.176.05-.127.097.2.068.143-.009-.017.052.03-.012-.005-.079-.042-.152-.088-.231-.13a9.654 9.654 0 0 0-.612-.29c-.085-.038-.17-.077-.257-.112-.067-.03.012.003-.058-.023-.021-.01-.062-.018-.079-.033-.032-.029.102.01.014-.002-.98-.138-1.966-.262-2.947-.39l-5.103-.679-3.626-.481c-.199-.027-.4-.033-.593-.08l-1.278-.31-4.782-1.16-3.723-.905-.198-.047.359-.205-.773 2.037-1.64 4.313-1.48 3.89c-.452 1.188-.913 2.368-1.07 3.642a8.94 8.94 0 0 0 .245 3.529c.39 1.376 1.161 2.536 1.978 3.69.216.305.435.61.656.915.094.13.02.33-.105.403-.148.088-.306.023-.4-.106v-.015Z"
        fill="#1D1D1B"
      ></path>
      <path
        d="M80.975 87.148c-.338-.449-.673-.898-1.006-1.35-.09-.123-.023-.335.105-.402.152-.082.3-.026.4.106.332.452.67.9 1.006 1.35.094.123.024.335-.105.402-.154.082-.3.027-.4-.106ZM82.516 89.183c-.172-.226-.344-.452-.516-.681-.044-.056-.047-.162-.03-.226a.299.299 0 0 1 .135-.176.3.3 0 0 1 .224-.03l.07.03a.302.302 0 0 1 .105.105c.173.226.345.452.517.681.044.056.047.162.029.226a.299.299 0 0 1-.134.177.3.3 0 0 1-.225.029l-.07-.03a.303.303 0 0 1-.105-.105ZM102.327 82.466c-.414-.185-.817-.393-1.234-.575-.417-.182-.881-.352-1.316-.546-.96-.429-1.89-.928-2.795-1.468-2.057-1.227-4.088-2.648-5.582-4.553a9.68 9.68 0 0 1-.758-1.092 3.333 3.333 0 0 1-.353-.76c-.102-.364.46-.52.563-.156a1.703 1.703 0 0 0 .076.203c.055.117.114.232.178.346.178.314.382.61.598.898.63.84 1.386 1.594 2.191 2.267.978.816 2.051 1.53 3.137 2.19.901.549 1.83 1.06 2.789 1.503.446.205.907.378 1.36.572.487.206.957.446 1.441.663.143.065.178.276.105.403-.087.15-.254.17-.4.105Z"
        fill="#1D1D1B"
      ></path>
      <path d="M109.388 24.715s-7.513-.34-7.317.702l7.317-.702Z" fill="#fff"></path>
      <path
        d="m109.735 25.813.479-.337a2.552 2.552 0 0 0-2.037-1.095c-5.616-.12-6.112.464-6.276.657a.505.505 0 0 0-.116.429l.572-.109a.092.092 0 0 1-.012.062c.157-.211 1.558-.543 5.818-.452a1.97 1.97 0 0 1 1.57.845h.002Z"
        fill="#1D1D1B"
      ></path>
      <path
        d="m63.037 120.426 4.803-2.319a.837.837 0 0 0 .388-1.113l-4.397-9.176a.828.828 0 0 0-1.097-.394l-10.877 5.132a.836.836 0 0 0-.4 1.103l8.415 18.315c.364.772 1.511.555 1.572-.299l.663-9.87c.043-.596.4-1.121.933-1.379h-.003Z"
        fill="#935DA3"
      ></path>
      <path
        d="m59.869 131.974-8.415-18.315a.836.836 0 0 1 .4-1.103l10.877-5.132c5.935 4.459-4.467 8.243-4.552 15.896-.061 5.625 1.69 8.651 1.69 8.651v.003Z"
        fill="#fff"
        opacity="0.2"
      ></path>
      <path
        d="M113.517 12.653s-3.09 1.694-3.959-1.021c-.87-2.716-2.416-4.23-4.056-3.326-1.643.904-2.609 1.611-3.959 1.306-1.725-.39-2.513.226-2.513.226s1.62 1.312.954 4.377c-.665 3.065-4.058 1.858-4.154 4.069-.097 2.21-3.703-3.361-3.776-7.26-.073-3.898 2.819-8.046 5.013-8.742 3.358-1.065 5.751 0 7.685.89 1.614.74 4.905-1.175 6.256 1.64 1.351 2.816.484 5.026.869 5.933.385.904 1.643 1.911 1.643 1.911l-.003-.003Z"
        fill="#1D1D1B"
      ></path>
      <path
        d="M95.55 18.933c.148 0 .4-.086.423-.643.04-.937.723-1.192 1.587-1.515.977-.364 2.194-.82 2.564-2.528.561-2.586-.452-3.954-.854-4.38.294-.143 1.024-.384 2.237-.111 1.229.279 2.163-.25 3.452-.98.193-.11.397-.224.61-.344.505-.279 1.009-.32 1.5-.123.927.373 1.782 1.597 2.348 3.364.24.745.663 1.245 1.258 1.482 1.266.511 2.845-.34 2.912-.378l.192-.106-.172-.138s-1.231-.992-1.599-1.852c-.122-.285-.105-.749-.081-1.333.043-1.157.105-2.739-.791-4.603-.916-1.908-2.67-1.75-4.213-1.609-.811.074-1.579.144-2.116-.102-1.832-.84-4.338-1.99-7.79-.896-2.363.752-5.188 5-5.115 8.886.062 3.212 2.6 7.894 3.639 7.906h.006l.002.003Zm4.904-9.597c-1.006 0-1.488.367-1.514.388l-.146.114.143.118c.015.011 1.538 1.3.904 4.23-.335 1.553-1.374 1.94-2.38 2.316-.89.332-1.73.646-1.78 1.779-.003.085-.023.36-.132.36-.72-.008-3.288-4.34-3.352-7.617-.07-3.704 2.687-7.893 4.91-8.601 3.347-1.063 5.696.015 7.581.884.607.279 1.412.205 2.261.129 1.523-.138 3.096-.282 3.924 1.444.864 1.8.806 3.34.762 4.465-.023.622-.044 1.113.105 1.462.312.73 1.144 1.503 1.508 1.82-.449.202-1.572.628-2.468.267-.511-.205-.875-.643-1.085-1.3-.601-1.88-1.494-3.138-2.518-3.546-.578-.232-1.165-.185-1.748.137-.216.118-.42.235-.613.344-1.281.725-2.124 1.2-3.244.948a5.063 5.063 0 0 0-1.118-.135v-.006Z"
        fill="#1D1D1B"
      ></path>
      <path
        d="M106.252 15.157h.008l1.967-.108a.134.134 0 0 0 .111-.065.154.154 0 0 0 .017-.129l-.186-.587a4.103 4.103 0 0 1 .043-2.075.146.146 0 0 0-.099-.182.146.146 0 0 0-.181.1 4.372 4.372 0 0 0-.043 2.236l.131.417-1.78.097a.143.143 0 0 0-.137.155c.003.08.07.139.146.139l.003.002Z"
        fill="#1D1D1B"
      ></path>
      <path
        d="M143.292 19.103c.855.42 1.961-1.265 2.084-1.465.288-.476.388-.67.528-1.095a8.64 8.64 0 0 0 .207-.74l.201-.848c.038-.19.178-.358.368-.393.283-.053.931.138.557 2.169a8.403 8.403 0 0 1-.338 1.247l-.222.623c-.056.1.047.2.149.152.863-.381 1.777-1.47 2.413-2.322.72-.962 1.38-.692.977.652 0 0-.146.766-1.529 2.798-.21.31-.356.528-.437.692-.094.191-.126.315.07.194.571-.35 1.575-1.359 1.908-1.532.265-.138.586-.13.668.07.044.109.143.367-.21.928 0 0-1.751 4.163-3.989 5.181-.169.076-.306.206-.449.3-.595.393-3.583 3.775-4.989 5.48-.453.55-1.812 2.128-2.3 2.645-2.024 2.137-6.774 7.201-7.886 8.32a7.392 7.392 0 0 1-1.675 1.256.808.808 0 0 1-.688.044l-15.546-5.986 2.74-8.63.128.059 10.971 4.462c.309.14.671.079.916-.156l7.207-6.352c2.573-2.425 4.297-3.823 5.619-5.883"
        fill="#fff"
      ></path>
      <path
        d="M129.007 43.808c.184 0 .368-.047.531-.135a7.618 7.618 0 0 0 1.742-1.309c.788-.793 3.428-3.593 5.552-5.848.908-.962 1.742-1.849 2.34-2.477.502-.532 1.862-2.11 2.314-2.66 1.479-1.796 4.394-5.072 4.925-5.422.053-.035.108-.076.161-.114.084-.065.166-.127.248-.162 2.255-1.024 3.971-4.943 4.128-5.31.377-.61.307-.963.219-1.174a.533.533 0 0 0-.324-.303c-.219-.079-.499-.047-.75.086-.175.093-.437.317-.849.678l-.122.105c1.141-1.717 1.345-2.46 1.377-2.6.318-1.07-.006-1.418-.228-1.53-.172-.088-.641-.203-1.266.631-.718.957-1.354 1.63-1.899 2.002l.064-.182c.157-.443.274-.878.35-1.291.216-1.172.137-1.923-.236-2.299a.733.733 0 0 0-.663-.211c-.294.055-.536.308-.601.625l-.198.84a7.788 7.788 0 0 1-.201.713c-.135.402-.228.581-.502 1.036-.356.59-1.223 1.591-1.704 1.353l-.257.529c1.15.56 2.407-1.489 2.46-1.577.297-.49.405-.701.557-1.153.079-.235.149-.485.213-.764l.201-.848c.018-.094.076-.161.137-.173a.158.158 0 0 1 .143.05c.079.079.318.44.073 1.776-.07.384-.181.79-.326 1.203l-.213.605a.396.396 0 0 0 .064.44c.119.133.309.17.472.097.727-.323 1.556-1.112 2.53-2.413.298-.399.511-.46.543-.458.017.024.099.259-.079.846l-.009.03s-.175.762-1.482 2.685c-.21.308-.368.543-.458.731-.067.141-.196.4 0 .581.085.08.239.141.484-.006.327-.2.768-.584 1.156-.924.286-.25.61-.534.735-.6a.421.421 0 0 1 .271-.055c.024.07.053.244-.195.637l-.024.044c-.017.041-1.73 4.069-3.842 5.026-.14.064-.257.152-.359.229a4.88 4.88 0 0 1-.131.094c-.654.431-3.688 3.88-5.057 5.54-.437.53-1.8 2.116-2.287 2.63-.598.63-1.433 1.517-2.34 2.48-2.121 2.248-4.759 5.049-5.541 5.836a7.198 7.198 0 0 1-1.608 1.206.538.538 0 0 1-.446.03l-15.286-5.886 2.559-8.058 10.81 4.397c.408.188.893.106 1.228-.214l7.198-6.344c.493-.464.949-.886 1.378-1.283 1.858-1.717 3.203-2.959 4.294-4.661l-.49-.317c-1.05 1.64-2.369 2.859-4.198 4.547-.429.396-.887.819-1.375 1.28l-7.201 6.343a.532.532 0 0 1-.601.109l-11.099-4.524-.3-.138-2.924 9.21 15.803 6.084c.128.05.265.074.399.074l.012-.015Z"
        fill="#1D1D1B"
      ></path>
      <path
        d="M129.007 43.808c.184 0 .368-.047.531-.135a7.618 7.618 0 0 0 1.742-1.309c.788-.793 3.428-3.593 5.552-5.848.908-.962 1.742-1.849 2.34-2.477.502-.532 1.862-2.11 2.314-2.66 1.334-1.617 4.984-5.404 5.36-5.712 2.244-1.043 3.948-4.932 4.102-5.299.377-.61.307-.963.219-1.174a.534.534 0 0 0-.324-.303c-.219-.079-.499-.046-.75.086-.175.093-.437.317-.849.678l-.122.105c1.141-1.717 1.345-2.46 1.377-2.6.318-1.07-.006-1.418-.228-1.53-.172-.088-.641-.203-1.266.631-.718.957-1.354 1.63-1.899 2.002l.064-.182c.157-.443.274-.878.35-1.291.216-1.172.137-1.923-.236-2.299a.733.733 0 0 0-.663-.211c-.294.056-.536.308-.601.625l-.198.84a7.79 7.79 0 0 1-.201.713c-.135.402-.228.581-.502 1.036-.356.59-1.223 1.591-1.704 1.353l-.257.529c1.15.56 2.407-1.489 2.46-1.577.297-.49.405-.701.557-1.153.079-.235.149-.485.213-.764l.201-.848c.018-.094.076-.161.137-.173a.159.159 0 0 1 .143.05c.079.08.318.44.073 1.776-.07.384-.181.79-.326 1.203l-.213.605a.396.396 0 0 0 .064.44c.119.133.309.17.472.097.727-.323 1.556-1.112 2.53-2.413.298-.399.511-.46.543-.458.017.024.099.259-.079.846l-.009.03s-.175.762-1.482 2.685c-.21.308-.368.543-.458.731-.067.141-.196.4 0 .581.085.08.239.141.484-.005.327-.2.768-.585 1.156-.925.286-.25.61-.534.735-.599a.42.42 0 0 1 .271-.056c.024.07.053.244-.195.637l-.024.044c-.017.041-1.73 4.069-3.842 5.026-.309.14-4.35 4.415-5.544 5.862-.437.531-1.8 2.117-2.287 2.63-.598.631-1.433 1.518-2.34 2.48-2.122 2.25-4.759 5.05-5.541 5.837a7.217 7.217 0 0 1-1.608 1.206.538.538 0 0 1-.446.03l-15.286-5.886 2.559-8.058 10.81 4.397c.408.188.893.106 1.228-.214l7.198-6.344c.493-.464.949-.886 1.377-1.283 1.859-1.717 3.204-2.959 4.295-4.661l-.49-.317c-1.05 1.64-2.369 2.859-4.198 4.547-.429.396-.887.819-1.375 1.28l-7.201 6.343a.533.533 0 0 1-.601.11L116.02 28.59l-.3-.137-2.924 9.208 15.803 6.086c.128.05.265.073.399.073l.009-.012Z"
        fill="#1D1D1B"
      ></path>
      <path
        d="M72.462 26.873c-.374-.25-.864-.04-.963.417-.219 1.01.236 2.466.382 3.261.353 1.938 1.214 4.592 1.99 6.145.283.569.601 1.018.922 1.373.8.887 2.16.303 2.162-.927l.006-5.384-2.626-3.643-1.87-1.242h-.003Z"
        fill="#4176B3"
      ></path>
      <path
        d="M75.706 38.788c.178 0 .36-.032.534-.1.61-.237 1.007-.845 1.007-1.546l.006-5.478-2.714-3.763-1.914-1.271a.898.898 0 0 0-.846-.089.957.957 0 0 0-.563.687c-.184.855.067 1.97.254 2.786.05.22.096.423.128.593.359 1.964 1.225 4.638 2.016 6.224.274.545.598 1.03.966 1.438.31.34.712.522 1.13.522l-.004-.002Zm.963-6.933-.006 5.287c0 .554-.327.88-.633.998-.359.14-.741.038-1.018-.27a5.81 5.81 0 0 1-.879-1.31c-.767-1.54-1.613-4.148-1.963-6.064-.032-.18-.079-.388-.131-.62-.172-.76-.409-1.802-.251-2.53a.36.36 0 0 1 .213-.267.32.32 0 0 1 .303.035l1.827 1.212 2.538 3.523v.006Z"
        fill="#1D1D1B"
      ></path>
      <path
        d="M44.384 55.964c.348 0 .677-.232.82-.58l.453-.999c.154-.338.306-.637.466-.916.248-.428.412-.634.855-1.118.199-.22.663-.593 1.001-.664v.091c.015.461.04 1.321.467 2.24.397.857.831 1.26 1.287 1.2.294-.038.53-.287.589-.622.017-.094.04-.258.073-.47.163-1.085.543-3.63 1.082-4.573 1.369-2.378 3.163-3.652 6.653-5.806.715-.44 1.637-.966 2.124-1.236 1.205-.675 5.64-3.265 6.188-3.585l21.606-2.03-1.62-8.702a2.248 2.248 0 0 0-2.616-1.738l-16.465 3.106-2.471.637a1.075 1.075 0 0 0-.24.097 63.44 63.44 0 0 0-12.552 8.079c-2.465 2.034-5.701 4.462-5.928 4.597-5.142 2.815-6.498 5.087-6.148 5.856.178.387.668.56 1.164.414.233-.07.613-.285 1.208-.625.225-.13.464-.267.694-.394l-.105.106c-2.106 2.072-2.59 3.047-2.655 3.194-.464.88-.505 1.562-.117 1.87.371.293.984.117 1.634-.47 1.243-1.121 2.285-1.835 3.105-2.128l-.242.41a10.737 10.737 0 0 0-.803 1.654c-.493 1.294-.566 2.21-.221 2.72a.862.862 0 0 0 .706.391h.008v-.006Zm3.709-4.876c-.744 0-1.535.858-1.544.866-.466.514-.656.749-.928 1.222-.169.296-.33.61-.493.965l-.458 1.007c-.058.138-.172.23-.286.23a.277.277 0 0 1-.23-.133c-.105-.155-.286-.678.286-2.181a9.97 9.97 0 0 1 .761-1.562l.418-.707a.428.428 0 0 0 .026-.479.441.441 0 0 0-.482-.202c-.974.217-2.188.992-3.714 2.366-.516.464-.828.487-.884.443-.047-.035-.14-.352.277-1.142l.012-.026s.403-.92 2.53-3.012c.335-.332.586-.581.744-.79.113-.15.306-.402.14-.628-.105-.144-.278-.17-.514-.085-.45.164-1.091.534-1.657.86-.444.255-.902.52-1.083.572-.236.07-.423.006-.47-.096-.081-.244.657-2.226 5.9-5.096.24-.133 3.542-2.616 6.017-4.66a63.05 63.05 0 0 1 12.455-8.013.448.448 0 0 1 .114-.05l2.451-.634 16.447-3.103a1.665 1.665 0 0 1 1.938 1.28l1.5 8.058-21.096 1.984-.055.033c-.05.029-4.96 2.897-6.235 3.613-.49.276-1.421.805-2.145 1.25-3.574 2.208-5.418 3.52-6.854 6.013-.598 1.039-.974 3.566-1.155 4.782-.03.205-.053.36-.07.452-.015.08-.058.138-.09.144-.073.006-.342-.13-.683-.866-.377-.808-.4-1.56-.415-2.008-.011-.332-.017-.593-.291-.652a.97.97 0 0 0-.184-.017v.002Z"
        fill="#1D1D1B"
      ></path>
      <path
        d="m87.71 36.628-1.561-8.384a1.961 1.961 0 0 0-2.276-1.503L67.408 29.85l-2.45.634a.703.703 0 0 0-.17.067 63.247 63.247 0 0 0-12.511 8.05c-2.498 2.06-5.763 4.511-5.973 4.626-5.094 2.789-6.264 4.952-6.025 5.478.114.252.452.36.817.255.458-.135 1.958-1.145 2.757-1.438.275-.103.205.044.041.258-.143.188-.376.423-.718.757-2.226 2.193-2.596 3.112-2.596 3.112-.835 1.58-.076 2.078 1.059 1.054 1.006-.907 2.413-2.034 3.583-2.299.14-.032.242.12.149.23l-.43.721a10.585 10.585 0 0 0-.781 1.606c-.884 2.322-.146 2.707.216 2.713.248 0 .46-.17.557-.4l.458-1.006c.146-.32.303-.638.479-.94.26-.449.434-.67.89-1.168.198-.217.927-.87 1.45-.76.142.029-.103 1.203.498 2.498.677 1.456 1.25 1.08 1.328.651.108-.604.516-3.965 1.19-5.137 1.416-2.46 3.242-3.743 6.752-5.909.738-.455 1.692-.995 2.133-1.245 1.292-.725 6.238-3.613 6.238-3.613l21.352-2.008.009-.01Z"
        fill="#fff"
      ></path>
      <path
        d="M44.384 55.964c.348 0 .677-.232.82-.58l.453-.999c.154-.338.306-.637.466-.916.248-.428.412-.634.855-1.118.199-.22.663-.593 1.001-.664v.091c.015.461.04 1.321.467 2.24.397.857.831 1.26 1.287 1.2.294-.038.53-.287.589-.622.017-.094.04-.258.073-.47.163-1.085.543-3.63 1.082-4.573 1.369-2.378 3.163-3.652 6.653-5.806.715-.44 1.637-.966 2.124-1.236 1.205-.675 5.64-3.265 6.188-3.585l21.606-2.03-1.62-8.702a2.248 2.248 0 0 0-2.616-1.738l-16.465 3.106-2.471.637a1.075 1.075 0 0 0-.24.097 63.44 63.44 0 0 0-12.552 8.079c-2.465 2.034-5.701 4.462-5.928 4.597-5.142 2.815-6.498 5.087-6.148 5.856.178.387.668.56 1.164.414.233-.07.613-.285 1.208-.625.225-.13.464-.267.694-.394l-.105.106c-2.106 2.072-2.59 3.047-2.655 3.194-.464.88-.505 1.562-.117 1.87.371.293.984.117 1.634-.47 1.243-1.121 2.285-1.835 3.105-2.128l-.242.41a10.737 10.737 0 0 0-.803 1.654c-.493 1.294-.566 2.21-.221 2.72a.862.862 0 0 0 .706.391h.008v-.006Zm3.709-4.876c-.744 0-1.535.858-1.544.866-.466.514-.656.749-.928 1.222-.169.296-.33.61-.493.965l-.458 1.007c-.058.138-.172.23-.286.23a.277.277 0 0 1-.23-.133c-.105-.155-.286-.678.286-2.181a9.97 9.97 0 0 1 .761-1.562l.418-.707a.428.428 0 0 0 .026-.479.441.441 0 0 0-.482-.202c-.974.217-2.188.992-3.714 2.366-.516.464-.828.487-.884.443-.047-.035-.14-.352.277-1.142l.012-.026s.403-.92 2.53-3.012c.335-.332.586-.581.744-.79.113-.15.306-.402.14-.628-.105-.144-.278-.17-.514-.085-.45.164-1.091.534-1.657.86-.444.255-.902.52-1.083.572-.236.07-.423.006-.47-.096-.081-.244.657-2.226 5.9-5.096.24-.133 3.542-2.616 6.017-4.66a63.05 63.05 0 0 1 12.455-8.013.448.448 0 0 1 .114-.05l2.451-.634 16.447-3.103a1.665 1.665 0 0 1 1.938 1.28l1.5 8.058-21.096 1.984-.055.033c-.05.029-4.96 2.897-6.235 3.613-.49.276-1.421.805-2.145 1.25-3.574 2.208-5.418 3.52-6.854 6.013-.598 1.039-.974 3.566-1.155 4.782-.03.205-.053.36-.07.452-.015.08-.058.138-.09.144-.073.006-.342-.13-.683-.866-.377-.808-.4-1.56-.415-2.008-.011-.332-.017-.593-.291-.652a.97.97 0 0 0-.184-.017v.002Z"
        fill="#1D1D1B"
      ></path>
      <path
        d="M44.384 55.964c.348 0 .677-.232.82-.58l.453-.999c.154-.338.306-.637.466-.916.248-.428.412-.634.855-1.118.199-.22.663-.593 1.001-.664v.091c.015.461.04 1.321.467 2.24.397.857.831 1.26 1.287 1.2.294-.038.53-.287.589-.622.017-.094.04-.258.073-.47.163-1.085.543-3.63 1.082-4.573 1.369-2.378 3.163-3.652 6.653-5.806.715-.44 1.637-.966 2.124-1.236 1.205-.675 5.64-3.265 6.188-3.585l21.606-2.03-1.62-8.702a2.248 2.248 0 0 0-2.616-1.738l-16.465 3.106-2.471.637a1.075 1.075 0 0 0-.24.097 63.44 63.44 0 0 0-12.552 8.079c-2.465 2.034-5.701 4.462-5.928 4.597-5.142 2.815-6.498 5.087-6.148 5.856.178.387.668.56 1.164.414.233-.07.613-.285 1.208-.625.225-.13.464-.267.694-.394l-.105.106c-2.106 2.072-2.59 3.047-2.655 3.194-.464.88-.505 1.562-.117 1.87.371.293.984.117 1.634-.47 1.243-1.121 2.285-1.835 3.105-2.128l-.242.41a10.737 10.737 0 0 0-.803 1.654c-.493 1.294-.566 2.21-.221 2.72a.862.862 0 0 0 .706.391h.008v-.006Zm3.709-4.876c-.744 0-1.535.858-1.544.866-.466.514-.656.749-.928 1.222-.169.296-.33.61-.493.965l-.458 1.007c-.058.138-.172.23-.286.23a.277.277 0 0 1-.23-.133c-.105-.155-.286-.678.286-2.181a9.97 9.97 0 0 1 .761-1.562l.418-.707a.428.428 0 0 0 .026-.479.441.441 0 0 0-.482-.202c-.974.217-2.188.992-3.714 2.366-.516.464-.828.487-.884.443-.047-.035-.14-.352.277-1.142l.012-.026s.403-.92 2.53-3.012c.335-.332.586-.581.744-.79.113-.15.306-.402.14-.628-.105-.144-.278-.17-.514-.085-.45.164-1.091.534-1.657.86-.444.255-.902.52-1.083.572-.236.07-.423.006-.47-.096-.081-.244.657-2.226 5.9-5.096.24-.133 3.542-2.616 6.017-4.66a63.05 63.05 0 0 1 12.455-8.013.448.448 0 0 1 .114-.05l2.451-.634 16.447-3.103a1.665 1.665 0 0 1 1.938 1.28l1.5 8.058-21.096 1.984-.055.033c-.05.029-4.96 2.897-6.235 3.613-.49.276-1.421.805-2.145 1.25-3.574 2.208-5.418 3.52-6.854 6.013-.598 1.039-.974 3.566-1.155 4.782-.03.205-.053.36-.07.452-.015.08-.058.138-.09.144-.073.006-.342-.13-.683-.866-.377-.808-.4-1.56-.415-2.008-.011-.332-.017-.593-.291-.652a.97.97 0 0 0-.184-.017v.002Z"
        fill="#1D1D1B"
      ></path>
      <path
        d="M146.295 20.887a1.474 1.474 0 0 0-1.877-.537l-.145.094a.187.187 0 0 1-.26-.055l-2.028-3.16a.363.363 0 0 1 .108-.501l6.34-4.122.333-.214 6.34-4.121a.359.359 0 0 1 .499.108l2.028 3.159a.19.19 0 0 1-.056.261l-.146.094a1.493 1.493 0 0 0-.285 1.943 1.474 1.474 0 0 0 1.884.535l.14-.091a.188.188 0 0 1 .26.055l1.832 2.854a.688.688 0 0 1-.201.948l-6.098 3.963-.277.179-6.098 3.963a.681.681 0 0 1-.943-.203l-1.832-2.853a.19.19 0 0 1 .056-.261l.14-.091c.563-.473.7-1.31.291-1.947h-.005Zm8.426 1.366-6.127 3.98 6.127-3.98Z"
        fill="#905EA3"
      ></path>
      <path
        d="M148.214 26.647c.181 0 .365-.05.526-.155l12.473-8.105a.985.985 0 0 0 .289-1.354l-1.833-2.853a.477.477 0 0 0-.662-.14l-.122.078a1.182 1.182 0 0 1-1.497-.437 1.196 1.196 0 0 1 .216-1.547l.128-.085a.486.486 0 0 0 .14-.666l-2.028-3.16a.635.635 0 0 0-.411-.284.64.64 0 0 0-.49.09l-13.013 8.455a.64.64 0 0 0-.283.414.641.641 0 0 0 .09.493l2.028 3.159a.478.478 0 0 0 .662.14l.129-.084a1.185 1.185 0 0 1 1.491.44 1.2 1.2 0 0 1-.219 1.553l-.123.08a.486.486 0 0 0-.14.666l1.832 2.853a.97.97 0 0 0 .82.446l-.003.003Zm.222-.657-.012.008a.389.389 0 0 1-.539-.117l-1.774-2.765.079-.056a1.79 1.79 0 0 0 .35-2.334 1.766 1.766 0 0 0-2.25-.643l-.09.056-1.97-3.07a.071.071 0 0 1-.009-.053c0-.012.012-.03.03-.044l13.013-8.455a.07.07 0 0 1 .052-.009.065.065 0 0 1 .044.03l1.969 3.07-.087.059a1.79 1.79 0 0 0-.342 2.328 1.764 1.764 0 0 0 2.256.64l.082-.05 1.774 2.765a.395.395 0 0 1-.117.543l-12.465 8.1.006-.003Z"
        fill="#1D1D1B"
      ></path>
      <path
        d="M148.214 26.647c.181 0 .365-.05.526-.155l12.473-8.105a.985.985 0 0 0 .289-1.354l-1.833-2.853a.477.477 0 0 0-.662-.14l-.122.078a1.182 1.182 0 0 1-1.497-.437 1.196 1.196 0 0 1 .216-1.547l.128-.085a.486.486 0 0 0 .14-.666l-2.028-3.16a.635.635 0 0 0-.411-.284.64.64 0 0 0-.49.09l-13.013 8.455a.64.64 0 0 0-.283.414.641.641 0 0 0 .09.493l2.028 3.159a.478.478 0 0 0 .662.14l.129-.084a1.185 1.185 0 0 1 1.491.44 1.2 1.2 0 0 1-.219 1.553l-.123.08a.486.486 0 0 0-.14.666l1.832 2.853a.97.97 0 0 0 .82.446l-.003.003Zm.222-.657-.012.008a.389.389 0 0 1-.539-.117l-1.774-2.765.079-.056a1.79 1.79 0 0 0 .35-2.334 1.766 1.766 0 0 0-2.25-.643l-.09.056-1.97-3.07a.071.071 0 0 1-.009-.053c0-.012.012-.03.03-.044l13.013-8.455a.07.07 0 0 1 .052-.009.065.065 0 0 1 .044.03l1.969 3.07-.087.059a1.79 1.79 0 0 0-.342 2.328 1.764 1.764 0 0 0 2.256.64l.082-.05 1.774 2.765a.395.395 0 0 1-.117.543l-12.465 8.1.006-.003Z"
        fill="#1D1D1B"
      ></path>
      <path
        d="m149.565 19.816.412-1.714-1.132-1.339a.07.07 0 0 1-.012-.065.078.078 0 0 1 .023-.029.048.048 0 0 1 .026-.009l1.716-.217.902-1.485s.011-.015.02-.02c.012-.007.023-.013.038-.01.023 0 .044.015.053.036l.747 1.588 1.724.326c.023.006.041.02.049.044a.067.067 0 0 1-.017.064l-1.348 1.198.169 1.779c0 .023-.009.047-.029.058h-.006a.057.057 0 0 1-.064.006l-1.541-.886-1.639.743a.063.063 0 0 1-.064-.01.062.062 0 0 1-.021-.06l-.006.002Z"
        fill="#ED6A1D"
      ></path>
      <path
        d="M152.862 20.189a.201.201 0 0 0 .114-.035.21.21 0 0 0 .099-.2l-.16-1.703 1.292-1.15a.207.207 0 0 0-.096-.361l-1.651-.314-.715-1.521a.213.213 0 0 0-.304-.088l-.029.018-.038.05-.863 1.423-1.678.212-.053.026a.225.225 0 0 0-.084.103.213.213 0 0 0 .035.211l1.085 1.28-.394 1.644a.21.21 0 0 0 .289.238l1.573-.71 1.476.848a.211.211 0 0 0 .102.026v.003Zm1.022-3.194-1.276 1.136.161 1.7-1.473-.846-1.553.702.391-1.62-1.079-1.277 1.631-.206.858-1.412.711 1.515 1.629.308Z"
        fill="#1D1D1B"
      ></path>
      <path
        d="M143.015 16.596a1.47 1.47 0 0 0-1.876.537l-.073.159a.19.19 0 0 1-.251.09l-3.376-1.611a.364.364 0 0 1-.172-.484l3.233-6.864.169-.358 3.233-6.86a.36.36 0 0 1 .481-.173l3.376 1.611a.192.192 0 0 1 .091.253l-.073.158a1.49 1.49 0 0 0 .773 1.803c.683.325 1.491.079 1.882-.543l.07-.15a.19.19 0 0 1 .251-.091l3.049 1.456c.341.161.484.57.324.913l-3.111 6.599-.143.3-3.11 6.598a.678.678 0 0 1-.907.326l-3.049-1.456a.191.191 0 0 1-.091-.252l.07-.15a1.491 1.491 0 0 0-.773-1.808l.003-.003Zm7.878-3.306-3.125 6.632 3.125-6.632Z"
        fill="#905EA3"
      ></path>
      <path
        d="M147.146 20.623a.973.973 0 0 0 .882-.56l6.36-13.5a.978.978 0 0 0-.464-1.304l-3.049-1.456a.469.469 0 0 0-.367-.018.49.49 0 0 0-.272.247l-.061.132a1.178 1.178 0 0 1-1.5.42 1.196 1.196 0 0 1-.627-1.43l.064-.14a.483.483 0 0 0-.227-.64L144.509.766a.641.641 0 0 0-.499-.026.658.658 0 0 0-.371.338l-6.637 14.084a.653.653 0 0 0 .309.875l3.376 1.612a.47.47 0 0 0 .367.017.49.49 0 0 0 .272-.246l.064-.138c.324-.49.963-.67 1.497-.417.536.255.805.872.627 1.435l-.064.135a.483.483 0 0 0 .227.64l3.049 1.456a.964.964 0 0 0 .415.094l.005-.003Zm.359-.822-.005.012a.388.388 0 0 1-.52.185l-2.955-1.409.037-.088a1.78 1.78 0 0 0-.924-2.166 1.766 1.766 0 0 0-2.25.645l-.047.094-3.282-1.564a.06.06 0 0 1-.035-.038.103.103 0 0 1 0-.053l6.643-14.088c.012-.02.027-.032.038-.035a.066.066 0 0 1 .053 0l3.282 1.564-.043.097a1.785 1.785 0 0 0 .927 2.16 1.765 1.765 0 0 0 2.253-.65l.044-.089 2.955 1.41a.39.39 0 0 1 .184.522l-6.355 13.489v.002Z"
        fill="#1D1D1B"
      ></path>
      <path
        d="M147.146 20.623a.973.973 0 0 0 .882-.56l6.36-13.5a.978.978 0 0 0-.464-1.304l-3.049-1.456a.469.469 0 0 0-.367-.018.49.49 0 0 0-.272.247l-.061.132a1.178 1.178 0 0 1-1.5.42 1.196 1.196 0 0 1-.627-1.43l.064-.14a.483.483 0 0 0-.227-.64L144.509.766a.641.641 0 0 0-.499-.026.658.658 0 0 0-.371.338l-6.637 14.084a.653.653 0 0 0 .309.875l3.376 1.612a.47.47 0 0 0 .367.017.49.49 0 0 0 .272-.246l.064-.138c.324-.49.963-.67 1.497-.417.536.255.805.872.627 1.435l-.064.135a.483.483 0 0 0 .227.64l3.049 1.456a.964.964 0 0 0 .415.094l.005-.003Zm.359-.822-.005.012a.388.388 0 0 1-.52.185l-2.955-1.409.037-.088a1.78 1.78 0 0 0-.924-2.166 1.766 1.766 0 0 0-2.25.645l-.047.094-3.282-1.564a.06.06 0 0 1-.035-.038.103.103 0 0 1 0-.053l6.643-14.088c.012-.02.027-.032.038-.035a.066.066 0 0 1 .053 0l3.282 1.564-.043.097a1.785 1.785 0 0 0 .927 2.16 1.765 1.765 0 0 0 2.253-.65l.044-.089 2.955 1.41a.39.39 0 0 1 .184.522l-6.355 13.489v.002Z"
        fill="#1D1D1B"
      ></path>
      <path
        d="m145.233 13.954-.546-1.676-1.663-.538a.06.06 0 0 1-.041-.046c0-.015 0-.027.006-.039a.042.042 0 0 1 .017-.02l1.345-1.092-.011-1.738s0-.018.006-.027a.073.073 0 0 1 .026-.029c.02-.012.044-.009.064 0l1.465.954 1.637-.634a.063.063 0 0 1 .064.012c.017.017.023.041.017.064l-.516 1.732 1.074 1.421c.014.02.014.044.005.065v.006a.064.064 0 0 1-.055.035l-1.774.065-1.007 1.5a.063.063 0 0 1-.111-.015h-.002Z"
        fill="#ED6A1D"
      ></path>
      <path
        d="m145.233 13.954-.546-1.676-1.663-.538a.06.06 0 0 1-.041-.046c0-.015 0-.027.006-.039a.042.042 0 0 1 .017-.02l1.345-1.092-.011-1.738s0-.018.006-.027a.073.073 0 0 1 .026-.029c.02-.012.044-.009.064 0l1.465.954 1.637-.634a.063.063 0 0 1 .064.012c.017.017.023.041.017.064l-.516 1.732 1.074 1.421c.014.02.014.044.005.065v.006a.064.064 0 0 1-.055.035l-1.774.065-1.007 1.5a.063.063 0 0 1-.111-.015h-.002Z"
        fill="#ED6A1D"
      ></path>
      <path
        d="M145.294 14.145c.07 0 .134-.033.172-.091l.966-1.439 1.701-.061c.079 0 .146-.05.181-.12l.011-.033c.024-.044.015-.126-.029-.188l-1.03-1.365.496-1.661a.209.209 0 0 0-.274-.256l-1.567.608-1.403-.916a.213.213 0 0 0-.213-.009.223.223 0 0 0-.088.091l-.014.03-.006.061.011 1.67-1.315 1.069-.033.053a.207.207 0 0 0 .123.288l1.593.513.522 1.606a.203.203 0 0 0 .17.14h.029l-.003.01Zm2.672-1.88-1.695.063-.951 1.42-.516-1.585-1.588-.514 1.278-1.039-.008-1.655 1.397.91 1.547-.6-.491 1.642 1.027 1.359Z"
        fill="#1D1D1B"
      ></path>
      <path
        d="M87.024 66.347c8.782.112 12.596-.014 16.952 3.637.464.39.866-.974 1.234-2.973.219-1.18.426-2.578.627-3.97.514-3.516 3.297-19.8 4.018-24.018a.824.824 0 0 1 1.112-.63l8.633 3.36c.642.25 1.287-.352 1.092-1.015-.403-1.371-.812-3.38-.479-5.19.295-1.606 1.611-3.49 2.101-4.022.359-.387-.464-1.23-.913-1.506l-11.318-5.604a8.226 8.226 0 0 0-5.445-1.08l-32.422 3.302-.347.035s4.593 5.194 3.397 10.607l-.035.14c-.158.555.306 1.093.878 1.04l10.906-.767c.038-.087 1.768 3.238-2.716 15.538a162.381 162.381 0 0 0-3.291 10.01l-.517 1.762a.825.825 0 0 0 .044.587.825.825 0 0 0 .709.478l5.777.28h.003Z"
        fill="#E4650E"
      ></path>
      <path
        d="M72.867 28.473c.768 1.236.832 1.286.832 1.286s6.124-.699 13.497-2.466c2.915-.699 8.622-2.824 8.622-2.824l-12.371 1.027-8.838.902-2.903.428s.645.82 1.161 1.65v-.003ZM80.66 65.684c.383.746 4.64.379 4.64.379s2.065-8.496 2.806-12.902c.742-4.406 1.173-9.655.663-12.72-.525-3.156-1.754-2.745-1.754-2.745.29-.017-.087 7.26-1.278 11.232-1.456 4.855-5.666 15.608-5.077 16.759v-.003Z"
        fill="#fff"
        opacity="0.2"
      ></path>
      <path
        d="M104.74 69.333a.293.293 0 0 0 .286-.235l.514-2.583 2.629-14.898c.557-3.626 1.549-10.063 1.975-12.544a.533.533 0 0 1 .721-.411l8.633 3.361c.4.156.846.07 1.161-.22.316-.293.438-.734.316-1.15-.394-1.336-.794-3.297-.473-5.056.297-1.632.861-2.489 1.278-2.92.659-.681.934-1.3.82-1.847-.099-.466-.476-.842-1.089-1.089l-11.294-5.592a8.52 8.52 0 0 0-5.617-1.107l-19.828 2.1a.293.293 0 0 0 .06.583l19.844-2.102a7.962 7.962 0 0 1 5.267 1.043l11.338 5.612c.263.106.68.32.756.675.07.335-.158.79-.666 1.313-.475.49-1.108 1.447-1.435 3.223-.344 1.873.076 3.93.487 5.328a.528.528 0 0 1-.152.552.52.52 0 0 1-.554.105l-8.634-3.36a1.101 1.101 0 0 0-.954.07 1.131 1.131 0 0 0-.551.79c-.426 2.483-1.421 8.926-1.975 12.546l-2.626 14.883-.514 2.577a.294.294 0 0 0 .228.347c.02.003.038.006.058.006h-.009ZM79.528 26.286h.032l2.796-.296a.293.293 0 0 0-.062-.585l-2.795.297a.294.294 0 0 0 .03.587v-.003ZM75.458 26.718h.032l1.313-.138a.293.293 0 0 0-.061-.585l-1.313.138a.294.294 0 0 0 .03.587v-.002ZM83.415 56.27c.122 0 .236-.08.277-.203.271-.83.548-1.694.858-2.663l.026-.082c2.054-6.385 2.699-10.277 2.877-12.417.131-1.57.081-3.332-.336-3.488a.31.31 0 0 0-.146-.014l-10.883.763a.548.548 0 0 1-.475-.194.515.515 0 0 1-.102-.472c.014-.05.029-.103.04-.156 1.025-4.632-2.305-8.991-3.407-10.274l1.587-.153a.293.293 0 0 0 .262-.32.29.29 0 0 0-.318-.264l-1.634.155a.566.566 0 0 0-.368.93c1.022 1.184 4.284 5.39 3.31 9.797-.01.041-.02.082-.033.123-.099.35-.017.728.216 1.01.24.288.601.44.972.402L86.817 38c.175.757.648 4.432-2.795 15.138l-.027.082c-.309.966-.586 1.83-.858 2.66a.293.293 0 0 0 .278.385v.006ZM81.99 60.494c.12 0 .234-.077.275-.197.266-.763.505-1.465.733-2.137a.294.294 0 0 0-.184-.373.291.291 0 0 0-.37.185c-.228.672-.465 1.371-.73 2.131a.293.293 0 0 0 .274.39h.003Z"
        fill="#1D1D1B"
      ></path>
      <path
        d="M104.79 69.083a.29.29 0 0 0 .225-.105.296.296 0 0 0-.038-.414c-3.402-2.85-6.956-2.748-12.336-2.587-1.652.05-3.525.106-5.611.08l-6.693-.17 1.313-3.828a.292.292 0 1 0-.551-.19l-1.576 4.584 7.492.188c2.104.026 3.983-.03 5.64-.08 5.246-.155 8.715-.258 11.945 2.452.056.047.12.067.187.067l.003.003Z"
        fill="#1D1D1B"
      ></path>
      <path
        d="M108.986 24.087a1.67 1.67 0 0 1 .297 2.66l-2.629 2.46c-.122.114-.318-.006-.271-.17l.385-1.307a1.67 1.67 0 0 0-.569-1.785l-2.865-2.277 1.993-.294a5.643 5.643 0 0 1 3.656.707l.003.006Z"
        fill="#4176B3"
      ></path>
      <path
        d="M106.543 29.547a.453.453 0 0 0 .31-.123l2.629-2.46c.455-.428.677-1.03.606-1.653a1.947 1.947 0 0 0-.959-1.476l-.149.252.146-.255a5.929 5.929 0 0 0-3.846-.743l-2.664.39 3.396 2.701c.447.35.631.928.47 1.471l-.385 1.303a.459.459 0 0 0 .441.593h.005Zm2.297-5.207c.379.223.624.599.674 1.033.049.437-.105.857-.426 1.157l-2.291 2.145.254-.86a1.957 1.957 0 0 0-.668-2.099l-2.331-1.855 1.321-.194a5.37 5.37 0 0 1 3.47.673h-.003Z"
        fill="#1D1D1B"
      ></path>
      <path
        d="m101.995 23.808-4.164.552-1.657 2.117c-.627.798-.4 1.973.481 2.474l6.381 3.658c.152.088.316-.09.219-.238l-2.847-4.338a1.674 1.674 0 0 1 .002-1.84l1.582-2.388.003.003Z"
        fill="#4176B3"
      ></path>
      <path
        d="m99.17 24.102-1.245.258-1.658 2.117c-.627.798-.4 1.973.482 2.474l6.381 3.658c.152.088.315-.09.219-.238l-5.766-4.338c-.472-.45-.364-1.283.003-1.84l1.582-2.094.002.003Z"
        fill="#fff"
        opacity="0.2"
      ></path>
      <path
        d="M101.613 31.068s-2.51-2.59-2.21-2.736c.179-.085 3.362 3.625 3.362 3.625l-.4-.323-.755-.569.003.003Z"
        fill="#fff"
        opacity="0.2"
      ></path>
      <path
        d="M103.118 32.926a.458.458 0 0 0 .379-.713l-2.847-4.339a1.372 1.372 0 0 1 .003-1.515l1.937-2.926-4.916.651-1.734 2.21c-.35.45-.49 1.028-.382 1.589.108.56.452 1.042.946 1.327l6.381 3.657c.07.042.148.062.227.062l.006-.003Zm-1.724-8.742-1.226 1.85a1.964 1.964 0 0 0-.006 2.163l2.556 3.896-5.923-3.394a1.37 1.37 0 0 1-.662-.928c-.076-.39.02-.798.266-1.112l1.584-2.023 3.408-.452h.003Z"
        fill="#1D1D1B"
      ></path>
      <path
        d="M78.533 69.846s1.73-4.579 1.87-4.67c.858-.564 4.482-2.334 10.551-2.19 7.09.167 11.936 3.097 14.131 5.804l-1.03 3.913-1.716-2.343c-1.027.781-3.994.69-5.106 1.239.009-1.025-2.395-3.294-2.387-4.318 0 0-4.16-.969-9.783.176-4.403.895-6.527 2.39-6.527 2.39h-.003Z"
        fill="#4176B3"
      ></path>
      <path
        d="m103.766 67.988-.712 2.921s1.149 1.764.986 1.597c-.163-.167.75-3.72.75-3.72l-1.024-.798Z"
        fill="#191919"
        opacity="0.2"
      ></path>
      <path d="m85.91 63.306-3.341 4.518-3.723 1.653 1.648-4.474 5.415-1.697Z" fill="#fff"
        opacity="0.2"></path>
      <path
        d="M78.25 69.767c.257-.68.52-1.362.782-2.043.202-.52.406-1.04.613-1.559.14-.346.271-.701.44-1.036.111-.22.348-.323.555-.437.35-.188.712-.353 1.077-.502 1.155-.479 2.369-.813 3.594-1.051a26.226 26.226 0 0 1 5.567-.45c1.903.042 3.808.28 5.646.773 2.746.733 5.401 2.049 7.466 4.033.208.2.409.405.602.62.172.187.516.478.472.748-.044.27-.099.525-.149.79l-.548 2.915-.041.211c-.053.276-.4.252-.534.07l-1.716-2.342.4.106c-.324.24-.726.37-1.111.466a13.2 13.2 0 0 1-1.43.262c-.479.067-.975.129-1.456.214-.365.064-.811.153-1.106.293-.195.094-.438-.017-.438-.252v-.07c-.005-.05.012.035-.005-.033a1.941 1.941 0 0 0-.05-.173 2.603 2.603 0 0 0-.17-.361 9.548 9.548 0 0 0-.586-.904c-.434-.61-.913-1.2-1.272-1.861-.152-.28-.297-.59-.297-.916l.212.282a5.683 5.683 0 0 0-.379-.074 15.497 15.497 0 0 0-1.004-.147 25.734 25.734 0 0 0-3.833-.135c-1.821.068-3.63.32-5.404.749-1.35.326-2.687.749-3.954 1.327-.516.235-1.047.487-1.51.813-.31.217-.602-.294-.296-.508.383-.267.814-.481 1.232-.68a21.083 21.083 0 0 1 3.76-1.36c3.128-.834 6.431-1.145 9.658-.828.63.062 1.27.135 1.888.276.126.03.213.159.213.282v.07c.006.05-.012-.035.006.033.014.058.03.114.05.173.037.108.099.232.169.36.172.315.38.611.586.905.435.61.913 1.2 1.272 1.861.152.28.298.59.298.916l-.438-.252c.797-.385 1.745-.432 2.606-.555.484-.068.969-.141 1.441-.256.377-.09.744-.196 1.056-.428.138-.1.316-.012.4.105l1.716 2.343-.534.07.645-3.425.093-.487.076.284c-1.272-1.562-2.932-2.768-4.721-3.66-2.498-1.245-5.275-1.864-8.047-2.023-2.772-.158-5.66.076-8.353.884a18.2 18.2 0 0 0-1.296.443c-.327.126-.584.238-.913.4-.21.102-.418.21-.616.334-.04.026-.131.108-.032.014.05-.046.035-.052.003.01a4.445 4.445 0 0 0-.123.266c-.12.276-.248.596-.385.937-.169.42-.332.842-.496 1.265-.25.649-.502 1.3-.747 1.95l-.04.108c-.056.147-.196.25-.36.205-.14-.038-.26-.211-.204-.36v.002Z"
        fill="#1D1D1B"
      ></path>
      <path
        d="M99.255 68.904a.828.828 0 0 1-.826-.83c0-.46.37-.831.826-.831.456 0 .826.372.826.83 0 .46-.37.831-.826.831Z"
        fill="#FCBF00"
      ></path>
      <path
        d="M60.607 132.743a1.106 1.106 0 0 0 1.123-1.045l.662-9.872c.035-.487.33-.925.77-1.136l4.803-2.319c.269-.129.473-.358.572-.643.1-.285.082-.59-.05-.86l-4.4-9.177a1.123 1.123 0 0 0-1.482-.531l-10.877 5.131a1.13 1.13 0 0 0-.54 1.492l8.415 18.314c.193.405.578.646 1.004.646Zm2.305-12.581a1.965 1.965 0 0 0-1.1 1.623l-.662 9.872a.522.522 0 0 1-.435.49.519.519 0 0 1-.584-.296l-8.412-18.312a.542.542 0 0 1 .26-.713l10.877-5.132a.536.536 0 0 1 .71.256l4.4 9.176a.543.543 0 0 1-.252.719l-4.802 2.319v-.002Z"
        fill="#1D1D1B"
      ></path>
      <path
        d="m115.145 140.267-.105-7.773a.83.83 0 0 0-.832-.822l-13.392.073a.83.83 0 0 0-.823.834l.021 16.574c0 .455.361.825.814.831l27.327.422c.858.015 1.167-1.133.42-1.555l-12.587-7.16a1.666 1.666 0 0 1-.84-1.427l-.003.003Z"
        fill="#935DA3"
      ></path>
      <path
        d="m109.269 131.736-8.252.074a.828.828 0 0 0-.822.833l.02 16.574c0 .455.362.825.814.831 0 0 23.995.573 23.248.147 0 0-10.929-3.411-13.526-7.756-2.159-3.61-1.027-10.703-1.482-10.703Z"
        fill="#fff"
        opacity="0.2"
      ></path>
      <path
        d="M128.167 150.703c.51 0 .945-.332 1.079-.831a1.112 1.112 0 0 0-.528-1.274l-12.587-7.16a1.373 1.373 0 0 1-.691-1.174l-.105-7.773a1.126 1.126 0 0 0-1.118-1.11h-.006l-13.395.073a1.12 1.12 0 0 0-1.112 1.128l.02 16.574c0 .61.497 1.115 1.104 1.124l27.327.423h.018-.006Zm-13.953-18.735c.292 0 .531.238.534.532l.105 7.773a1.96 1.96 0 0 0 .989 1.676l12.587 7.16a.519.519 0 0 1 .254.61.512.512 0 0 1-.525.397l-27.327-.423a.539.539 0 0 1-.528-.537l-.021-16.574a.54.54 0 0 1 .534-.54l13.392-.074h.006ZM72.038 102.961l4.653 9.7-.526.256-4.652-9.701.525-.255Z"
        fill="#1D1D1B"
      ></path>
      <path
        d="m46.488 110.175-9.281-6.602-1.08 3.795 10.361 2.807ZM46.859 114.569l-7.233-1.341 1.111 3.79 6.122-2.449Z"
        fill="#F39200"
      ></path>
      <path
        d="M46.488 110.468a.294.294 0 0 0 .17-.534l-9.282-6.602a.294.294 0 0 0-.265-.038.294.294 0 0 0-.184.197l-1.08 3.795a.304.304 0 0 0 .026.226.278.278 0 0 0 .178.138l10.361 2.804c.026.006.05.008.076.008v.006Zm-9.112-6.417 7.607 5.41-8.491-2.298.884-3.112ZM40.737 117.311a.294.294 0 0 0 .108-.02l6.122-2.449c.12-.05.195-.17.183-.302a.298.298 0 0 0-.236-.261l-7.233-1.339a.298.298 0 0 0-.268.091.303.303 0 0 0-.064.279l1.111 3.787a.303.303 0 0 0 .152.182.29.29 0 0 0 .128.029l-.003.003Zm5.071-2.639-4.881 1.952-.887-3.02 5.768 1.068Z"
        fill="#1D1D1B"
      ></path>
      <path d="m49.16 108.443-.516-5.217-3.06 2.475 3.577 2.742Z" fill="#F39200"></path>
      <path
        d="M49.164 108.736a.293.293 0 0 0 .292-.323l-.52-5.213a.29.29 0 0 0-.178-.241.29.29 0 0 0-.295.041l-3.06 2.472a.285.285 0 0 0-.108.232.297.297 0 0 0 .114.229l3.58 2.742a.301.301 0 0 0 .178.058l-.003.003Zm-.756-4.94.4 4.004-2.749-2.105 2.349-1.899ZM72.403 104.336l.26.525-8.488 4.272-.261-.525 8.489-4.272ZM73.548 106.479l.26.525-8.489 4.27-.26-.525 8.489-4.27ZM74.527 108.66l.261.525-8.489 4.272-.26-.525 8.488-4.272ZM75.497 110.676l.261.525-8.489 4.271-.26-.525 8.488-4.271Z"
        fill="#1D1D1B"
      ></path>
      <path
        d="M140.748 20.976s-.4-3.65.213-4.363c.298-.346.735-.42.986-.264.339.209.333 1.262.464 1.691.225.746.566.907.884 1.063"
        fill="#fff"
      ></path>
      <path
        d="m140.456 21.008.581-.065c-.161-1.462-.222-3.713.143-4.139.21-.246.499-.276.613-.205.113.085.189.648.227.919.032.229.061.446.108.604.26.863.686 1.072 1.027 1.24l.263-.526c-.298-.144-.546-.267-.733-.884a3.838 3.838 0 0 1-.087-.517c-.076-.554-.152-1.127-.502-1.341-.403-.25-.989-.112-1.36.323-.662.772-.35 3.957-.283 4.588l.003.003Z"
        fill="#1D1D1B"
      ></path>
      <path
        d="M140.512 21.627a.296.296 0 0 0 .242-.129l.236-.358a.29.29 0 0 0 .047-.197c-.161-1.462-.222-3.713.143-4.139.21-.246.499-.276.613-.205.113.085.189.648.227.919.032.229.061.446.108.604.236.787.56 1.09.975 1.3a.29.29 0 0 0 .391-.128.295.295 0 0 0-.129-.394c-.254-.129-.481-.29-.68-.945a3.838 3.838 0 0 1-.087-.517c-.076-.554-.152-1.127-.502-1.341-.403-.25-.989-.112-1.36.323-.63.733-.379 3.657-.294 4.48l-.178.266a.295.295 0 0 0 .242.458l.006.003Z"
        fill="#1D1D1B"
      ></path>
    </g>
    <defs>
      <clipPath id="super-homem_svg__a">
        <path fill="#fff" transform="matrix(-1 0 0 1 180 .703)" d="M0 0h180v150H0z"></path>
      </clipPath>
    </defs>
  </symbol>

  <symbol id="icon-lock">
    <path
      fillRule="evenodd"
      clipRule="evenodd"
      d="M26.243 25.098c0-4.96 2.62-8.301 7.966-8.301 5.635 0 8.257 2.892 8.256 8.3l.001 8.618H26.243v-8.617ZM52.91 35.645c-.002-1.067-.857-1.93-1.909-1.93H45.87s-.002-8.565-.001-10.117c0-5.45-3.721-10.298-11.72-10.298-7.588 0-11.308 4.849-11.307 10.298l-.001 10.117h-4.736c-1.055 0-1.91.866-1.91 1.934v25.088c0 1.068.855 1.935 1.91 1.935H51.06c1.056 0 1.912-.87 1.91-1.94l-.06-25.087Z"
      fill="#191919"
      fillOpacity="0.3"
    ></path>
    <path
      fillRule="evenodd"
      clipRule="evenodd"
      d="m25.18 31.81.002-9.844c-.001-5.302 3.587-10.02 10.906-10.02 7.714 0 11.305 4.718 11.304 10.02v9.843l-3.281.056-.001-8.44c0-5.262-2.529-8.077-7.964-8.077-5.155 0-7.683 3.25-7.683 8.077v8.44l-3.282-.056Z"
      fill="#999"
    ></path>
    <path
      fillRule="evenodd"
      clipRule="evenodd"
      d="M52.95 31.81H19.984c-.67 0-1.215.573-1.215 1.28V58.1c0 1.04.825 1.883 1.842 1.883h32.419c.672 0 1.217-.576 1.214-1.285l-.081-25.613c-.003-.706-.546-1.277-1.215-1.277"
      fill="#999"
    ></path>
    <path
      fillRule="evenodd"
      clipRule="evenodd"
      d="M45.95 45.896c0 5.33-4.227 9.651-9.44 9.651-5.214 0-9.44-4.32-9.44-9.65s4.226-9.651 9.44-9.651c5.213 0 9.44 4.32 9.44 9.65"
      fill="#666"
    ></path>
    <path
      fillRule="evenodd"
      clipRule="evenodd"
      d="M44.001 45.896c0 4.23-3.354 7.658-7.491 7.658s-7.491-3.428-7.491-7.658 3.354-7.658 7.49-7.658c4.138 0 7.492 3.429 7.492 7.658"
      fill="#252525"
    ></path>
    <path
      fillRule="evenodd"
      clipRule="evenodd"
      d="M39.792 39.002c3.717 1.859 5.256 6.445 3.438 10.244-1.819 3.8-6.305 5.373-10.021 3.514-3.717-1.858-5.255-6.445-3.438-10.244 1.819-3.8 6.305-5.373 10.021-3.514"
      fill="#CCC"
    ></path>
    <path
      fillRule="evenodd"
      clipRule="evenodd"
      d="M35.687 45.901a1.787 1.787 0 0 1-.76-1.478c.005-.983.787-1.775 1.748-1.77.961.005 1.736.805 1.731 1.788a1.787 1.787 0 0 1-.711 1.425v3.453H35.67l.017-3.418Z"
      fill="#191919"
    ></path>
    <path
      fillRule="evenodd"
      clipRule="evenodd"
      d="M35.253 44.424c.002-.386.15-.748.419-1.02.267-.27.62-.418.995-.418h.007c.78.004 1.41.656 1.407 1.453a1.444 1.444 0 0 1-.579 1.158.335.335 0 0 0-.133.269v3.119h-1.37l.014-3.082a.336.336 0 0 0-.142-.277c-.39-.272-.62-.721-.618-1.202"
      fill="#191919"
    ></path>
    <path
      fillRule="evenodd"
      clipRule="evenodd"
      d="M35.439 49.553a.324.324 0 0 0 .231.098h2.025a.33.33 0 0 0 .326-.333v-3.292c.445-.397.709-.977.712-1.584.005-1.165-.917-2.117-2.056-2.123h-.01c-.549 0-1.064.217-1.454.612a2.12 2.12 0 0 0-.612 1.49 2.13 2.13 0 0 0 .759 1.646l-.016 3.25a.34.34 0 0 0 .095.236M41.185 37.888a9.099 9.099 0 0 1 2.502 2.26.324.324 0 0 0 .458.058.338.338 0 0 0 .056-.468 9.752 9.752 0 0 0-2.681-2.422.323.323 0 0 0-.448.115.338.338 0 0 0 .113.457"
      fill="#191919"
    ></path>
    <path
      fillRule="evenodd"
      clipRule="evenodd"
      d="M45.902 46.839a.33.33 0 0 0-.367.286 9.446 9.446 0 0 1-.848 2.85c-1.07 2.236-2.927 3.912-5.23 4.72a8.876 8.876 0 0 1-6.962-.444c-4.514-2.258-6.39-7.85-4.182-12.464 2.066-4.318 7.111-6.334 11.486-4.593a.323.323 0 0 0 .422-.19.335.335 0 0 0-.185-.43c-4.688-1.868-10.095.293-12.31 4.92-2.365 4.945-.355 10.936 4.482 13.355a9.555 9.555 0 0 0 4.284 1.022 9.593 9.593 0 0 0 3.177-.546c2.468-.865 4.458-2.661 5.604-5.057a10.14 10.14 0 0 0 .909-3.054.332.332 0 0 0-.28-.375M45.678 43.658a.333.333 0 0 0-.25.396c.083.383.142.775.176 1.165a.329.329 0 0 0 .324.303l.03-.001a.332.332 0 0 0 .295-.362 10.32 10.32 0 0 0-.187-1.247.326.326 0 0 0-.389-.254M45.19 43.07a.327.327 0 0 0 .41.218.335.335 0 0 0 .212-.418 10.19 10.19 0 0 0-.746-1.787.323.323 0 0 0-.442-.133.338.338 0 0 0-.13.453c.284.53.518 1.091.696 1.668"
      fill="#191919"
    ></path>
    <path
      fillRule="evenodd"
      clipRule="evenodd"
      d="M43.78 47.722a.328.328 0 0 0 .384-.261c.115-.579.166-1.173.152-1.766a.33.33 0 0 0-.326-.325h-.007a.33.33 0 0 0-.319.342 7.48 7.48 0 0 1-.139 1.617.333.333 0 0 0 .255.393M43.848 44.727a.333.333 0 0 0 .32-.398 8.17 8.17 0 0 0-1.21-2.953 7.923 7.923 0 0 0-.948-1.167.322.322 0 0 0-.461.002.34.34 0 0 0 .001.472 7.282 7.282 0 0 1 1.503 2.237 7.53 7.53 0 0 1 .476 1.538.328.328 0 0 0 .32.269M29.478 42.37a8.103 8.103 0 0 0-.373 6.104c.678 2.019 2.084 3.647 3.96 4.585a7.648 7.648 0 0 0 3.428.818 7.67 7.67 0 0 0 2.543-.437c1.975-.692 3.568-2.13 4.486-4.048.079-.165.152-.33.218-.498a.336.336 0 0 0-.178-.434.324.324 0 0 0-.425.182 7.651 7.651 0 0 1-.2.457c-.842 1.758-2.302 3.076-4.112 3.71a6.976 6.976 0 0 1-5.474-.349 7.227 7.227 0 0 1-3.628-4.203 7.423 7.423 0 0 1 .34-5.595c1.737-3.628 6.037-5.136 9.586-3.36.198.098.394.208.582.325a.322.322 0 0 0 .448-.112.337.337 0 0 0-.11-.458 7.864 7.864 0 0 0-.634-.355c-3.872-1.936-8.563-.291-10.457 3.667"
      fill="#191919"
    ></path>
    <g opacity="0.2" fillRule="evenodd" clipRule="evenodd" fill="#fff">
      <path
        d="M36.148 15.348c5.434 0 7.964 2.814 7.963 8.076v8.441l3.283-.056-.001-9.844c0-5.302-3.59-10.02-11.304-10.02l.059 3.402Z"></path>
      <path
        d="m53.604 31.809-16.938.056v28.118h16.979c.333 0 .603-.576.601-1.285l-.04-25.613c-.001-.706-.27-1.276-.602-1.276"></path>
    </g>
    <path
      fillRule="evenodd"
      clipRule="evenodd"
      d="M52.401 59.317H20.614c-.656 0-1.19-.545-1.19-1.216v-24.41c0-.67.534-1.215 1.19-1.215h31.73c.654 0 1.188.544 1.19 1.213l.056 24.41c.001.325-.122.63-.347.861a1.17 1.17 0 0 1-.842.357Zm-8.942-28.175H29.116v-7.717c0-2.271.6-4.137 1.736-5.396 1.205-1.337 2.986-2.014 5.296-2.014 2.493 0 4.362.628 5.555 1.866 1.165 1.21 1.756 3.075 1.756 5.544v7.717ZM28.351 15.44c1.82-1.85 4.495-2.828 7.738-2.828 3.42 0 6.218.98 8.092 2.835 1.651 1.634 2.56 3.949 2.56 6.519v9.176h-1.977v-7.717c0-2.832-.717-5.012-2.132-6.48-1.447-1.502-3.628-2.264-6.484-2.264-2.689 0-4.793.822-6.255 2.444-1.361 1.51-2.08 3.689-2.08 6.3l-.001 7.717h-1.978c0-2.002.002-7.926.001-9.177 0-2.557.893-4.875 2.516-6.525Zm26.487 18.245c-.004-1.402-1.122-2.543-2.494-2.543h-4.298v-9.176c0-2.934-1.05-5.59-2.958-7.478-2.122-2.1-5.234-3.209-8.999-3.209-3.595 0-6.589 1.112-8.657 3.216-1.872 1.902-2.902 4.556-2.901 7.47v9.177h-3.917c-1.376 0-2.494 1.144-2.494 2.55v24.41c0 1.405 1.118 2.549 2.494 2.549H52.4c.667 0 1.294-.267 1.765-.749.471-.483.73-1.125.729-1.807l-.057-24.41Z"
      fill="#191919"
    ></path>
  </symbol>
  
  <symbol id="icon-google">
    <g fill="none" fillRule="evenodd">
      <rect width="26" height="26" fill="#21262D" rx="1"></rect>
      <path
        fill="#D7282A"
        d="M3.99 7.956c.374-.806.903-1.51 1.524-2.146 1.404-1.44 3.104-2.363 5.117-2.677 2.817-.44 5.338.21 7.516 2.045.138.116.172.184.022.327-.769.737-1.526 1.486-2.287 2.23-.078.077-.13.17-.27.046-1.917-1.72-5.048-1.7-7.086.154a5.72 5.72 0 0 0-1.524 2.275c-.047-.03-.097-.058-.142-.091L3.99 7.956"
      ></path>
      <path
        fill="#45AC43"
        d="M6.98 13.723c.275.683.616 1.329 1.124 1.878 1.291 1.395 2.892 1.997 4.81 1.802.89-.09 1.702-.386 2.461-.84.073.064.142.132.219.191.887.678 1.776 1.355 2.665 2.032a7.68 7.68 0 0 1-3.438 1.839c-3.068.759-5.897.28-8.408-1.66A8.377 8.377 0 0 1 3.982 16l2.998-2.277"
      ></path>
      <path
        fill="#4485F4"
        d="M18.259 18.786c-.889-.677-1.778-1.354-2.665-2.032-.077-.059-.146-.127-.219-.19.602-.45 1.104-.98 1.433-1.656a5.72 5.72 0 0 0 .312-.836c.06-.196.041-.273-.207-.27-1.48.012-2.958.005-4.437.005-.313 0-.313 0-.313-.317 0-.98.004-1.962-.005-2.942-.001-.19.032-.262.25-.262 2.728.008 5.456.006 8.183.003.148 0 .24.01.266.186.34 2.334.067 4.565-1.181 6.625-.383.63-.842 1.207-1.417 1.686"
      ></path>
      <path
        fill="#F4C300"
        d="M6.98 13.723 3.982 16c-.488-.888-.77-1.841-.9-2.835a8.707 8.707 0 0 1 .768-4.957c.04-.086.093-.168.14-.252l2.87 2.163c.045.033.095.06.142.091-.4 1.169-.38 2.34-.022 3.513"
      ></path>
    </g>
  </symbol>
</svg>